<?xml version="1.0" encoding="UTF-8" standalone="no"?>
<!DOCTYPE svg PUBLIC "-//W3C//DTD SVG 1.1//EN"
 "http://www.w3.org/Graphics/SVG/1.1/DTD/svg11.dtd">
<!-- Generated by graphviz version 2.38.0 (20140413.2041)
 -->
<!-- Title: Tree Pages: 1 -->
<svg width="720pt" height="287pt"
 viewBox="0.00 0.00 720.00 287.33" xmlns="http://www.w3.org/2000/svg" xmlns:xlink="http://www.w3.org/1999/xlink">
<g id="graph0" class="graph" transform="scale(0.5547 0.5547) rotate(0) translate(4 514)">
<title>Tree</title>
<polygon fill="white" stroke="none" points="-4,4 -4,-514 1294,-514 1294,4 -4,4"/>
<!-- 0 -->
<g id="node1" class="node"><title>0</title>
<path fill="#e89051" stroke="black" d="M236,-231.5C236,-231.5 12,-231.5 12,-231.5 6,-231.5 0,-225.5 0,-219.5 0,-219.5 0,-175.5 0,-175.5 0,-169.5 6,-163.5 12,-163.5 12,-163.5 236,-163.5 236,-163.5 242,-163.5 248,-169.5 248,-175.5 248,-175.5 248,-219.5 248,-219.5 248,-225.5 242,-231.5 236,-231.5"/>
<text text-anchor="middle" x="124" y="-216.3" font-family="Helvetica,sans-Serif" font-size="14.00">subscribing_channel_missing &lt;= 0.5</text>
<text text-anchor="middle" x="124" y="-201.3" font-family="Helvetica,sans-Serif" font-size="14.00">samples = 8029</text>
<text text-anchor="middle" x="124" y="-186.3" font-family="Helvetica,sans-Serif" font-size="14.00">value = [7157, 872]</text>
<text text-anchor="middle" x="124" y="-171.3" font-family="Helvetica,sans-Serif" font-size="14.00">class = Converted</text>
</g>
<!-- 1 -->
<g id="node2" class="node"><title>1</title>
<path fill="#d4eaf9" stroke="black" d="M530,-288.5C530,-288.5 296,-288.5 296,-288.5 290,-288.5 284,-282.5 284,-276.5 284,-276.5 284,-232.5 284,-232.5 284,-226.5 290,-220.5 296,-220.5 296,-220.5 530,-220.5 530,-220.5 536,-220.5 542,-226.5 542,-232.5 542,-232.5 542,-276.5 542,-276.5 542,-282.5 536,-288.5 530,-288.5"/>
<text text-anchor="middle" x="413" y="-273.3" font-family="Helvetica,sans-Serif" font-size="14.00">marketing_channel_House Ads &lt;= 0.5</text>
<text text-anchor="middle" x="413" y="-258.3" font-family="Helvetica,sans-Serif" font-size="14.00">samples = 1492</text>
<text text-anchor="middle" x="413" y="-243.3" font-family="Helvetica,sans-Serif" font-size="14.00">value = [655, 837]</text>
<text text-anchor="middle" x="413" y="-228.3" font-family="Helvetica,sans-Serif" font-size="14.00">class = Not Converted</text>
</g>
<!-- 0&#45;&gt;1 -->
<g id="edge1" class="edge"><title>0&#45;&gt;1</title>
<path fill="none" stroke="black" d="M248.379,-222.004C256.788,-223.674 265.29,-225.362 273.768,-227.046"/>
<polygon fill="black" stroke="black" points="273.211,-230.504 283.701,-229.019 274.575,-223.638 273.211,-230.504"/>
<text text-anchor="middle" x="262.919" y="-239.214" font-family="Helvetica,sans-Serif" font-size="14.00">True</text>
</g>
<!-- 12 -->
<g id="node13" class="node"><title>12</title>
<path fill="#e5823a" stroke="black" d="M519,-174.5C519,-174.5 307,-174.5 307,-174.5 301,-174.5 295,-168.5 295,-162.5 295,-162.5 295,-118.5 295,-118.5 295,-112.5 301,-106.5 307,-106.5 307,-106.5 519,-106.5 519,-106.5 525,-106.5 531,-112.5 531,-118.5 531,-118.5 531,-162.5 531,-162.5 531,-168.5 525,-174.5 519,-174.5"/>
<text text-anchor="middle" x="413" y="-159.3" font-family="Helvetica,sans-Serif" font-size="14.00">marketing_channel_missing &lt;= 0.5</text>
<text text-anchor="middle" x="413" y="-144.3" font-family="Helvetica,sans-Serif" font-size="14.00">samples = 6537</text>
<text text-anchor="middle" x="413" y="-129.3" font-family="Helvetica,sans-Serif" font-size="14.00">value = [6502, 35]</text>
<text text-anchor="middle" x="413" y="-114.3" font-family="Helvetica,sans-Serif" font-size="14.00">class = Converted</text>
</g>
<!-- 0&#45;&gt;12 -->
<g id="edge12" class="edge"><title>0&#45;&gt;12</title>
<path fill="none" stroke="black" d="M248.379,-172.996C260.367,-170.615 272.547,-168.196 284.573,-165.808"/>
<polygon fill="black" stroke="black" points="285.506,-169.191 294.632,-163.81 284.142,-162.325 285.506,-169.191"/>
<text text-anchor="middle" x="273.85" y="-146.215" font-family="Helvetica,sans-Serif" font-size="14.00">False</text>
</g>
<!-- 2 -->
<g id="node3" class="node"><title>2</title>
<path fill="#92c9f1" stroke="black" d="M835,-403.5C835,-403.5 590,-403.5 590,-403.5 584,-403.5 578,-397.5 578,-391.5 578,-391.5 578,-347.5 578,-347.5 578,-341.5 584,-335.5 590,-335.5 590,-335.5 835,-335.5 835,-335.5 841,-335.5 847,-341.5 847,-347.5 847,-347.5 847,-391.5 847,-391.5 847,-397.5 841,-403.5 835,-403.5"/>
<text text-anchor="middle" x="712.5" y="-388.3" font-family="Helvetica,sans-Serif" font-size="14.00">subscribing_channel_House Ads &lt;= 0.5</text>
<text text-anchor="middle" x="712.5" y="-373.3" font-family="Helvetica,sans-Serif" font-size="14.00">samples = 881</text>
<text text-anchor="middle" x="712.5" y="-358.3" font-family="Helvetica,sans-Serif" font-size="14.00">value = [274, 607]</text>
<text text-anchor="middle" x="712.5" y="-343.3" font-family="Helvetica,sans-Serif" font-size="14.00">class = Not Converted</text>
</g>
<!-- 1&#45;&gt;2 -->
<g id="edge2" class="edge"><title>1&#45;&gt;2</title>
<path fill="none" stroke="black" d="M502.052,-288.537C537.205,-302.126 577.817,-317.824 613.868,-331.76"/>
<polygon fill="black" stroke="black" points="612.827,-335.11 623.417,-335.451 615.351,-328.581 612.827,-335.11"/>
</g>
<!-- 7 -->
<g id="node8" class="node"><title>7</title>
<path fill="#f5cdb1" stroke="black" d="M835,-288.5C835,-288.5 590,-288.5 590,-288.5 584,-288.5 578,-282.5 578,-276.5 578,-276.5 578,-232.5 578,-232.5 578,-226.5 584,-220.5 590,-220.5 590,-220.5 835,-220.5 835,-220.5 841,-220.5 847,-226.5 847,-232.5 847,-232.5 847,-276.5 847,-276.5 847,-282.5 841,-288.5 835,-288.5"/>
<text text-anchor="middle" x="712.5" y="-273.3" font-family="Helvetica,sans-Serif" font-size="14.00">subscribing_channel_House Ads &lt;= 0.5</text>
<text text-anchor="middle" x="712.5" y="-258.3" font-family="Helvetica,sans-Serif" font-size="14.00">samples = 611</text>
<text text-anchor="middle" x="712.5" y="-243.3" font-family="Helvetica,sans-Serif" font-size="14.00">value = [381, 230]</text>
<text text-anchor="middle" x="712.5" y="-228.3" font-family="Helvetica,sans-Serif" font-size="14.00">class = Converted</text>
</g>
<!-- 1&#45;&gt;7 -->
<g id="edge7" class="edge"><title>1&#45;&gt;7</title>
<path fill="none" stroke="black" d="M542.325,-254.5C550.803,-254.5 559.37,-254.5 567.915,-254.5"/>
<polygon fill="black" stroke="black" points="567.929,-258 577.929,-254.5 567.929,-251 567.929,-258"/>
</g>
<!-- 3 -->
<g id="node4" class="node"><title>3</title>
<path fill="#8dc7f0" stroke="black" d="M1085,-482.5C1085,-482.5 895,-482.5 895,-482.5 889,-482.5 883,-476.5 883,-470.5 883,-470.5 883,-426.5 883,-426.5 883,-420.5 889,-414.5 895,-414.5 895,-414.5 1085,-414.5 1085,-414.5 1091,-414.5 1097,-420.5 1097,-426.5 1097,-426.5 1097,-470.5 1097,-470.5 1097,-476.5 1091,-482.5 1085,-482.5"/>
<text text-anchor="middle" x="990" y="-467.3" font-family="Helvetica,sans-Serif" font-size="14.00">age_group_36&#45;45 years &lt;= 0.5</text>
<text text-anchor="middle" x="990" y="-452.3" font-family="Helvetica,sans-Serif" font-size="14.00">samples = 866</text>
<text text-anchor="middle" x="990" y="-437.3" font-family="Helvetica,sans-Serif" font-size="14.00">value = [259, 607]</text>
<text text-anchor="middle" x="990" y="-422.3" font-family="Helvetica,sans-Serif" font-size="14.00">class = Not Converted</text>
</g>
<!-- 2&#45;&gt;3 -->
<g id="edge3" class="edge"><title>2&#45;&gt;3</title>
<path fill="none" stroke="black" d="M832.336,-403.576C845.812,-407.441 859.535,-411.376 872.975,-415.23"/>
<polygon fill="black" stroke="black" points="872.127,-418.627 882.704,-418.019 874.056,-411.899 872.127,-418.627"/>
</g>
<!-- 6 -->
<g id="node7" class="node"><title>6</title>
<path fill="#e58139" stroke="black" d="M1043.5,-396C1043.5,-396 936.5,-396 936.5,-396 930.5,-396 924.5,-390 924.5,-384 924.5,-384 924.5,-355 924.5,-355 924.5,-349 930.5,-343 936.5,-343 936.5,-343 1043.5,-343 1043.5,-343 1049.5,-343 1055.5,-349 1055.5,-355 1055.5,-355 1055.5,-384 1055.5,-384 1055.5,-390 1049.5,-396 1043.5,-396"/>
<text text-anchor="middle" x="990" y="-380.8" font-family="Helvetica,sans-Serif" font-size="14.00">samples = 15</text>
<text text-anchor="middle" x="990" y="-365.8" font-family="Helvetica,sans-Serif" font-size="14.00">value = [15, 0]</text>
<text text-anchor="middle" x="990" y="-350.8" font-family="Helvetica,sans-Serif" font-size="14.00">class = Converted</text>
</g>
<!-- 2&#45;&gt;6 -->
<g id="edge6" class="edge"><title>2&#45;&gt;6</title>
<path fill="none" stroke="black" d="M847.215,-369.5C870.307,-369.5 893.551,-369.5 914.347,-369.5"/>
<polygon fill="black" stroke="black" points="914.348,-373 924.348,-369.5 914.348,-366 914.348,-373"/>
</g>
<!-- 4 -->
<g id="node5" class="node"><title>4</title>
<path fill="#82c1ef" stroke="black" d="M1278,-510C1278,-510 1145,-510 1145,-510 1139,-510 1133,-504 1133,-498 1133,-498 1133,-469 1133,-469 1133,-463 1139,-457 1145,-457 1145,-457 1278,-457 1278,-457 1284,-457 1290,-463 1290,-469 1290,-469 1290,-498 1290,-498 1290,-504 1284,-510 1278,-510"/>
<text text-anchor="middle" x="1211.5" y="-494.8" font-family="Helvetica,sans-Serif" font-size="14.00">samples = 786</text>
<text text-anchor="middle" x="1211.5" y="-479.8" font-family="Helvetica,sans-Serif" font-size="14.00">value = [212, 574]</text>
<text text-anchor="middle" x="1211.5" y="-464.8" font-family="Helvetica,sans-Serif" font-size="14.00">class = Not Converted</text>
</g>
<!-- 3&#45;&gt;4 -->
<g id="edge4" class="edge"><title>3&#45;&gt;4</title>
<path fill="none" stroke="black" d="M1097.21,-465.436C1105.77,-466.801 1114.36,-468.17 1122.76,-469.51"/>
<polygon fill="black" stroke="black" points="1122.49,-473.011 1132.92,-471.129 1123.59,-466.098 1122.49,-473.011"/>
</g>
<!-- 5 -->
<g id="node6" class="node"><title>5</title>
<path fill="#f7d9c4" stroke="black" d="M1265,-439C1265,-439 1158,-439 1158,-439 1152,-439 1146,-433 1146,-427 1146,-427 1146,-398 1146,-398 1146,-392 1152,-386 1158,-386 1158,-386 1265,-386 1265,-386 1271,-386 1277,-392 1277,-398 1277,-398 1277,-427 1277,-427 1277,-433 1271,-439 1265,-439"/>
<text text-anchor="middle" x="1211.5" y="-423.8" font-family="Helvetica,sans-Serif" font-size="14.00">samples = 80</text>
<text text-anchor="middle" x="1211.5" y="-408.8" font-family="Helvetica,sans-Serif" font-size="14.00">value = [47, 33]</text>
<text text-anchor="middle" x="1211.5" y="-393.8" font-family="Helvetica,sans-Serif" font-size="14.00">class = Converted</text>
</g>
<!-- 3&#45;&gt;5 -->
<g id="edge5" class="edge"><title>3&#45;&gt;5</title>
<path fill="none" stroke="black" d="M1097.21,-431.08C1110.34,-428.927 1123.53,-426.764 1136.04,-424.712"/>
<polygon fill="black" stroke="black" points="1136.61,-428.166 1145.91,-423.094 1135.47,-421.258 1136.61,-428.166"/>
</g>
<!-- 8 -->
<g id="node9" class="node"><title>8</title>
<path fill="#e58139" stroke="black" d="M1043.5,-325C1043.5,-325 936.5,-325 936.5,-325 930.5,-325 924.5,-319 924.5,-313 924.5,-313 924.5,-284 924.5,-284 924.5,-278 930.5,-272 936.5,-272 936.5,-272 1043.5,-272 1043.5,-272 1049.5,-272 1055.5,-278 1055.5,-284 1055.5,-284 1055.5,-313 1055.5,-313 1055.5,-319 1049.5,-325 1043.5,-325"/>
<text text-anchor="middle" x="990" y="-309.8" font-family="Helvetica,sans-Serif" font-size="14.00">samples = 350</text>
<text text-anchor="middle" x="990" y="-294.8" font-family="Helvetica,sans-Serif" font-size="14.00">value = [350, 0]</text>
<text text-anchor="middle" x="990" y="-279.8" font-family="Helvetica,sans-Serif" font-size="14.00">class = Converted</text>
</g>
<!-- 7&#45;&gt;8 -->
<g id="edge8" class="edge"><title>7&#45;&gt;8</title>
<path fill="none" stroke="black" d="M847.215,-275.856C870.307,-279.544 893.551,-283.256 914.347,-286.577"/>
<polygon fill="black" stroke="black" points="913.921,-290.053 924.348,-288.174 915.025,-283.141 913.921,-290.053"/>
</g>
<!-- 9 -->
<g id="node10" class="node"><title>9</title>
<path fill="#54aae9" stroke="black" d="M1085,-253.5C1085,-253.5 895,-253.5 895,-253.5 889,-253.5 883,-247.5 883,-241.5 883,-241.5 883,-197.5 883,-197.5 883,-191.5 889,-185.5 895,-185.5 895,-185.5 1085,-185.5 1085,-185.5 1091,-185.5 1097,-191.5 1097,-197.5 1097,-197.5 1097,-241.5 1097,-241.5 1097,-247.5 1091,-253.5 1085,-253.5"/>
<text text-anchor="middle" x="990" y="-238.3" font-family="Helvetica,sans-Serif" font-size="14.00">age_group_24&#45;30 years &lt;= 0.5</text>
<text text-anchor="middle" x="990" y="-223.3" font-family="Helvetica,sans-Serif" font-size="14.00">samples = 261</text>
<text text-anchor="middle" x="990" y="-208.3" font-family="Helvetica,sans-Serif" font-size="14.00">value = [31, 230]</text>
<text text-anchor="middle" x="990" y="-193.3" font-family="Helvetica,sans-Serif" font-size="14.00">class = Not Converted</text>
</g>
<!-- 7&#45;&gt;9 -->
<g id="edge9" class="edge"><title>7&#45;&gt;9</title>
<path fill="none" stroke="black" d="M847.215,-237.513C855.695,-236.435 864.195,-235.356 872.586,-234.289"/>
<polygon fill="black" stroke="black" points="873.281,-237.729 882.76,-232.997 872.399,-230.785 873.281,-237.729"/>
</g>
<!-- 10 -->
<g id="node11" class="node"><title>10</title>
<path fill="#52a9e8" stroke="black" d="M1278,-292C1278,-292 1145,-292 1145,-292 1139,-292 1133,-286 1133,-280 1133,-280 1133,-251 1133,-251 1133,-245 1139,-239 1145,-239 1145,-239 1278,-239 1278,-239 1284,-239 1290,-245 1290,-251 1290,-251 1290,-280 1290,-280 1290,-286 1284,-292 1278,-292"/>
<text text-anchor="middle" x="1211.5" y="-276.8" font-family="Helvetica,sans-Serif" font-size="14.00">samples = 208</text>
<text text-anchor="middle" x="1211.5" y="-261.8" font-family="Helvetica,sans-Serif" font-size="14.00">value = [23, 185]</text>
<text text-anchor="middle" x="1211.5" y="-246.8" font-family="Helvetica,sans-Serif" font-size="14.00">class = Not Converted</text>
</g>
<!-- 9&#45;&gt;10 -->
<g id="edge10" class="edge"><title>9&#45;&gt;10</title>
<path fill="none" stroke="black" d="M1097.21,-241.759C1105.87,-243.572 1114.55,-245.391 1123.04,-247.172"/>
<polygon fill="black" stroke="black" points="1122.41,-250.615 1132.92,-249.241 1123.85,-243.764 1122.41,-250.615"/>
</g>
<!-- 11 -->
<g id="node12" class="node"><title>11</title>
<path fill="#5caeea" stroke="black" d="M1278,-221C1278,-221 1145,-221 1145,-221 1139,-221 1133,-215 1133,-209 1133,-209 1133,-180 1133,-180 1133,-174 1139,-168 1145,-168 1145,-168 1278,-168 1278,-168 1284,-168 1290,-174 1290,-180 1290,-180 1290,-209 1290,-209 1290,-215 1284,-221 1278,-221"/>
<text text-anchor="middle" x="1211.5" y="-205.8" font-family="Helvetica,sans-Serif" font-size="14.00">samples = 53</text>
<text text-anchor="middle" x="1211.5" y="-190.8" font-family="Helvetica,sans-Serif" font-size="14.00">value = [8, 45]</text>
<text text-anchor="middle" x="1211.5" y="-175.8" font-family="Helvetica,sans-Serif" font-size="14.00">class = Not Converted</text>
</g>
<!-- 9&#45;&gt;11 -->
<g id="edge11" class="edge"><title>9&#45;&gt;11</title>
<path fill="none" stroke="black" d="M1097.21,-207.403C1105.77,-206.428 1114.36,-205.45 1122.76,-204.493"/>
<polygon fill="black" stroke="black" points="1123.38,-207.946 1132.92,-203.336 1122.58,-200.991 1123.38,-207.946"/>
</g>
<!-- 13 -->
<g id="node14" class="node"><title>13</title>
<path fill="#e5813a" stroke="black" d="M812,-174.5C812,-174.5 613,-174.5 613,-174.5 607,-174.5 601,-168.5 601,-162.5 601,-162.5 601,-118.5 601,-118.5 601,-112.5 607,-106.5 613,-106.5 613,-106.5 812,-106.5 812,-106.5 818,-106.5 824,-112.5 824,-118.5 824,-118.5 824,-162.5 824,-162.5 824,-168.5 818,-174.5 812,-174.5"/>
<text text-anchor="middle" x="712.5" y="-159.3" font-family="Helvetica,sans-Serif" font-size="14.00">marketing_channel_Email &lt;= 0.5</text>
<text text-anchor="middle" x="712.5" y="-144.3" font-family="Helvetica,sans-Serif" font-size="14.00">samples = 6523</text>
<text text-anchor="middle" x="712.5" y="-129.3" font-family="Helvetica,sans-Serif" font-size="14.00">value = [6502, 21]</text>
<text text-anchor="middle" x="712.5" y="-114.3" font-family="Helvetica,sans-Serif" font-size="14.00">class = Converted</text>
</g>
<!-- 12&#45;&gt;13 -->
<g id="edge13" class="edge"><title>12&#45;&gt;13</title>
<path fill="none" stroke="black" d="M531.153,-140.5C550.676,-140.5 570.961,-140.5 590.577,-140.5"/>
<polygon fill="black" stroke="black" points="590.766,-144 600.766,-140.5 590.766,-137 590.766,-144"/>
</g>
<!-- 18 -->
<g id="node19" class="node"><title>18</title>
<path fill="#399de5" stroke="black" d="M779,-88C779,-88 646,-88 646,-88 640,-88 634,-82 634,-76 634,-76 634,-47 634,-47 634,-41 640,-35 646,-35 646,-35 779,-35 779,-35 785,-35 791,-41 791,-47 791,-47 791,-76 791,-76 791,-82 785,-88 779,-88"/>
<text text-anchor="middle" x="712.5" y="-72.8" font-family="Helvetica,sans-Serif" font-size="14.00">samples = 14</text>
<text text-anchor="middle" x="712.5" y="-57.8" font-family="Helvetica,sans-Serif" font-size="14.00">value = [0, 14]</text>
<text text-anchor="middle" x="712.5" y="-42.8" font-family="Helvetica,sans-Serif" font-size="14.00">class = Not Converted</text>
</g>
<!-- 12&#45;&gt;18 -->
<g id="edge18" class="edge"><title>12&#45;&gt;18</title>
<path fill="none" stroke="black" d="M531.153,-109.391C562.123,-101.166 595.01,-92.4336 624.1,-84.7087"/>
<polygon fill="black" stroke="black" points="625.045,-88.0791 633.812,-82.1298 623.249,-81.3136 625.045,-88.0791"/>
</g>
<!-- 14 -->
<g id="node15" class="node"><title>14</title>
<path fill="#e58139" stroke="black" d="M1043.5,-167C1043.5,-167 936.5,-167 936.5,-167 930.5,-167 924.5,-161 924.5,-155 924.5,-155 924.5,-126 924.5,-126 924.5,-120 930.5,-114 936.5,-114 936.5,-114 1043.5,-114 1043.5,-114 1049.5,-114 1055.5,-120 1055.5,-126 1055.5,-126 1055.5,-155 1055.5,-155 1055.5,-161 1049.5,-167 1043.5,-167"/>
<text text-anchor="middle" x="990" y="-151.8" font-family="Helvetica,sans-Serif" font-size="14.00">samples = 6239</text>
<text text-anchor="middle" x="990" y="-136.8" font-family="Helvetica,sans-Serif" font-size="14.00">value = [6239, 0]</text>
<text text-anchor="middle" x="990" y="-121.8" font-family="Helvetica,sans-Serif" font-size="14.00">class = Converted</text>
</g>
<!-- 13&#45;&gt;14 -->
<g id="edge14" class="edge"><title>13&#45;&gt;14</title>
<path fill="none" stroke="black" d="M824.366,-140.5C854.462,-140.5 886.339,-140.5 913.946,-140.5"/>
<polygon fill="black" stroke="black" points="914.305,-144 924.305,-140.5 914.305,-137 914.305,-144"/>
</g>
<!-- 15 -->
<g id="node16" class="node"><title>15</title>
<path fill="#e78b49" stroke="black" d="M1085,-95.5C1085,-95.5 895,-95.5 895,-95.5 889,-95.5 883,-89.5 883,-83.5 883,-83.5 883,-39.5 883,-39.5 883,-33.5 889,-27.5 895,-27.5 895,-27.5 1085,-27.5 1085,-27.5 1091,-27.5 1097,-33.5 1097,-39.5 1097,-39.5 1097,-83.5 1097,-83.5 1097,-89.5 1091,-95.5 1085,-95.5"/>
<text text-anchor="middle" x="990" y="-80.3" font-family="Helvetica,sans-Serif" font-size="14.00">age_group_24&#45;30 years &lt;= 0.5</text>
<text text-anchor="middle" x="990" y="-65.3" font-family="Helvetica,sans-Serif" font-size="14.00">samples = 284</text>
<text text-anchor="middle" x="990" y="-50.3" font-family="Helvetica,sans-Serif" font-size="14.00">value = [263, 21]</text>
<text text-anchor="middle" x="990" y="-35.3" font-family="Helvetica,sans-Serif" font-size="14.00">class = Converted</text>
</g>
<!-- 13&#45;&gt;15 -->
<g id="edge15" class="edge"><title>13&#45;&gt;15</title>
<path fill="none" stroke="black" d="M824.366,-108.709C840.338,-104.129 856.813,-99.4048 872.885,-94.7962"/>
<polygon fill="black" stroke="black" points="874.184,-98.0648 882.832,-91.9439 872.254,-91.336 874.184,-98.0648"/>
</g>
<!-- 16 -->
<g id="node17" class="node"><title>16</title>
<path fill="#e78d4c" stroke="black" d="M1265,-124C1265,-124 1158,-124 1158,-124 1152,-124 1146,-118 1146,-112 1146,-112 1146,-83 1146,-83 1146,-77 1152,-71 1158,-71 1158,-71 1265,-71 1265,-71 1271,-71 1277,-77 1277,-83 1277,-83 1277,-112 1277,-112 1277,-118 1271,-124 1265,-124"/>
<text text-anchor="middle" x="1211.5" y="-108.8" font-family="Helvetica,sans-Serif" font-size="14.00">samples = 240</text>
<text text-anchor="middle" x="1211.5" y="-93.8" font-family="Helvetica,sans-Serif" font-size="14.00">value = [219, 21]</text>
<text text-anchor="middle" x="1211.5" y="-78.8" font-family="Helvetica,sans-Serif" font-size="14.00">class = Converted</text>
</g>
<!-- 15&#45;&gt;16 -->
<g id="edge16" class="edge"><title>15&#45;&gt;16</title>
<path fill="none" stroke="black" d="M1097.21,-78.92C1110.34,-81.0726 1123.53,-83.2362 1136.04,-85.2876"/>
<polygon fill="black" stroke="black" points="1135.47,-88.7417 1145.91,-86.9064 1136.61,-81.834 1135.47,-88.7417"/>
</g>
<!-- 17 -->
<g id="node18" class="node"><title>17</title>
<path fill="#e58139" stroke="black" d="M1265,-53C1265,-53 1158,-53 1158,-53 1152,-53 1146,-47 1146,-41 1146,-41 1146,-12 1146,-12 1146,-6 1152,-0 1158,-0 1158,-0 1265,-0 1265,-0 1271,-0 1277,-6 1277,-12 1277,-12 1277,-41 1277,-41 1277,-47 1271,-53 1265,-53"/>
<text text-anchor="middle" x="1211.5" y="-37.8" font-family="Helvetica,sans-Serif" font-size="14.00">samples = 44</text>
<text text-anchor="middle" x="1211.5" y="-22.8" font-family="Helvetica,sans-Serif" font-size="14.00">value = [44, 0]</text>
<text text-anchor="middle" x="1211.5" y="-7.8" font-family="Helvetica,sans-Serif" font-size="14.00">class = Converted</text>
</g>
<!-- 15&#45;&gt;17 -->
<g id="edge17" class="edge"><title>15&#45;&gt;17</title>
<path fill="none" stroke="black" d="M1097.21,-44.5639C1110.21,-42.4918 1123.27,-40.4092 1135.67,-38.4324"/>
<polygon fill="black" stroke="black" points="1136.58,-41.8304 1145.91,-36.7993 1135.48,-34.9177 1136.58,-41.8304"/>
</g>
</g>
</svg>
